<?xml version="1.0" encoding="UTF-8" standalone="no"?>
<!DOCTYPE svg PUBLIC "-//W3C//DTD SVG 1.1//EN" "http://www.w3.org/Graphics/SVG/1.1/DTD/svg11.dtd">
<svg xmlns="http://www.w3.org/2000/svg" version="1.1" viewBox="0.00 0.00 2130.00 984.00">
<path fill="#000000" d="
  M 659.24 0.00
  L 660.05 0.00
  L 688.89 8.48
  A 0.83 0.83 0.0 0 1 689.45 9.50
  L 634.71 198.02
  Q 634.48 198.80 633.70 198.58
  L 604.59 190.12
  A 0.55 0.55 0.0 0 1 604.21 189.44
  L 659.24 0.00
  Z"
/>
<rect fill="#000000" x="-15.84" y="-130.64" transform="translate(800.11,140.93) rotate(36.8)" width="31.68" height="261.28" rx="0.48"/>
<rect fill="#000000" x="-15.83" y="-70.51" transform="translate(499.76,112.22) rotate(-4.4)" width="31.66" height="141.02" rx="0.65"/>
<rect fill="#000000" x="-15.83" y="-62.92" transform="translate(569.22,120.72) rotate(5.9)" width="31.66" height="125.84" rx="0.50"/>
<rect fill="#000000" x="-15.83" y="-48.28" transform="translate(436.11,145.32) rotate(-14.7)" width="31.66" height="96.56" rx="0.66"/>
<rect fill="#000000" x="-15.84" y="-62.96" transform="translate(700.99,159.00) rotate(26.5)" width="31.68" height="125.92" rx="0.50"/>
<rect fill="#000000" x="-15.84" y="-32.38" transform="translate(380.47,182.16) rotate(-25.0)" width="31.68" height="64.76" rx="0.73"/>
<rect fill="#000000" x="-51.91" y="-15.84" transform="translate(263.35,241.32) rotate(44.5)" width="103.82" height="31.68" rx="0.64"/>
<rect fill="#000000" x="-15.84" y="-12.74" transform="translate(336.94,229.98) rotate(-35.2)" width="31.68" height="25.48" rx="0.62"/>
<rect fill="#000000" x="-97.92" y="-15.84" transform="translate(882.52,276.74) rotate(-32.7)" width="195.84" height="31.68" rx="0.56"/>
<rect fill="#000000" x="-69.48" y="-15.84" transform="translate(206.57,282.92) rotate(34.4)" width="138.96" height="31.68" rx="0.50"/>
<rect fill="#000000" x="-17.07" y="-15.84" transform="translate(777.29,272.45) rotate(-42.9)" width="34.14" height="31.68" rx="0.63"/>
<path fill="#000000" d="
  M 576.77 381.22
  A 0.19 0.19 0.0 0 0 577.13 381.36
  L 607.07 321.31
  A 0.69 0.69 0.0 0 1 608.00 321.00
  L 627.74 330.87
  A 0.53 0.52 -63.7 0 1 627.97 331.57
  L 598.26 390.98
  A 0.27 0.26 -13.6 0 0 598.71 391.25
  L 638.31 338.30
  A 0.76 0.76 0.0 0 1 639.38 338.15
  L 657.06 351.34
  A 0.49 0.49 0.0 0 1 657.16 352.03
  L 616.81 405.76
  Q 616.74 405.86 616.82 405.94
  Q 616.90 406.03 617.10 405.99
  Q 617.20 405.97 617.30 405.88
  Q 641.45 383.31 666.23 360.38
  A 0.62 0.61 47.3 0 1 667.10 360.42
  L 682.02 376.50
  A 0.71 0.71 0.0 0 1 681.99 377.51
  L 632.57 423.28
  A 0.16 0.16 0.0 0 0 632.76 423.53
  L 689.49 387.23
  A 0.75 0.75 0.0 0 1 690.53 387.46
  L 702.33 406.00
  Q 702.63 406.46 702.16 406.76
  L 646.94 442.02
  Q 643.82 444.01 647.24 442.60
  L 707.65 417.76
  Q 708.36 417.47 708.65 418.18
  L 716.92 438.29
  A 0.75 0.75 0.0 0 1 716.50 439.27
  L 657.87 463.30
  Q 652.59 465.47 658.17 464.28
  L 720.26 451.01
  Q 720.88 450.88 721.02 451.50
  L 725.61 473.08
  A 0.59 0.58 -11.8 0 1 725.15 473.77
  L 660.12 487.50
  Q 659.98 487.54 659.98 487.69
  Q 659.99 487.87 660.14 487.98
  Q 660.23 488.05 660.38 488.05
  Q 693.53 486.95 726.46 486.04
  Q 727.19 486.02 727.21 486.74
  L 727.90 508.50
  A 0.72 0.71 -2.0 0 1 727.20 509.24
  Q 698.25 510.07 669.50 510.98
  C 666.86 511.06 663.22 510.50 660.76 511.14
  Q 659.34 511.50 660.79 511.72
  L 726.53 521.57
  A 0.65 0.64 8.9 0 1 727.07 522.30
  L 723.86 544.03
  A 0.64 0.63 8.2 0 1 723.14 544.56
  L 656.74 534.53
  A 0.21 0.21 0.0 0 0 656.64 534.94
  L 720.22 556.53
  A 0.62 0.62 0.0 0 1 720.61 557.31
  L 713.55 578.11
  A 0.69 0.69 0.0 0 1 712.68 578.54
  L 651.97 557.82
  Q 647.21 556.20 651.60 558.64
  L 707.70 589.81
  Q 708.27 590.13 707.95 590.70
  L 697.15 610.08
  A 0.43 0.43 0.0 0 1 696.57 610.24
  L 638.62 577.96
  A 0.27 0.27 0.0 0 0 638.32 578.40
  L 689.58 620.40
  A 0.52 0.52 0.0 0 1 689.65 621.13
  L 675.62 638.20
  Q 675.18 638.73 674.65 638.29
  L 622.71 595.58
  Q 622.62 595.50 622.54 595.59
  Q 622.47 595.68 622.50 595.87
  Q 622.52 595.97 622.60 596.07
  Q 644.49 621.59 665.95 647.00
  Q 666.46 647.60 665.86 648.12
  L 649.19 662.30
  Q 648.76 662.66 648.40 662.23
  L 606.88 613.33
  Q 603.69 609.57 606.16 613.84
  L 638.28 669.27
  A 0.63 0.63 0.0 0 1 638.06 670.13
  L 618.92 681.21
  Q 618.46 681.47 618.20 681.02
  L 586.32 625.92
  Q 583.55 621.13 585.43 626.33
  L 607.01 686.22
  A 0.52 0.52 0.0 0 1 606.70 686.89
  L 585.94 694.37
  A 0.69 0.68 -19.6 0 1 585.06 693.96
  L 562.39 630.83
  Q 562.35 630.71 562.31 630.73
  Q 562.18 630.77 562.06 630.81
  Q 562.01 630.83 562.04 630.99
  L 573.14 696.96
  Q 573.28 697.74 572.49 697.88
  L 550.98 701.47
  A 0.64 0.64 0.0 0 1 550.24 700.94
  Q 544.60 667.76 539.18 634.31
  Q 539.13 633.98 538.92 633.87
  Q 538.77 633.78 538.77 633.96
  L 537.92 701.92
  A 0.64 0.63 0.4 0 1 537.27 702.55
  L 515.17 702.18
  Q 514.67 702.17 514.68 701.67
  L 515.63 635.80
  A 0.32 0.32 0.0 0 0 515.00 635.73
  L 502.43 700.19
  Q 502.28 700.95 501.53 700.80
  L 480.41 696.65
  Q 479.46 696.46 479.65 695.52
  L 492.02 632.27
  Q 492.84 628.06 491.28 632.05
  L 467.72 692.49
  A 0.58 0.57 -68.6 0 1 466.98 692.82
  L 446.39 684.78
  A 0.60 0.60 0.0 0 1 446.05 684.00
  L 470.47 621.55
  Q 471.21 619.65 470.14 621.39
  L 435.03 678.47
  A 0.66 0.66 0.0 0 1 434.12 678.68
  L 415.65 667.31
  A 0.92 0.92 0.0 0 1 415.35 666.04
  L 449.93 609.94
  A 0.27 0.26 -8.8 0 0 449.50 609.63
  L 405.65 658.59
  A 1.08 1.08 0.0 0 1 404.13 658.67
  L 388.02 644.24
  A 0.57 0.56 -48.3 0 1 387.98 643.45
  Q 409.60 619.28 431.24 595.26
  Q 431.68 594.78 431.34 594.50
  A 0.30 0.29 44.0 0 0 430.97 594.50
  L 379.63 634.37
  A 0.63 0.63 0.0 0 1 378.74 634.26
  L 365.30 616.98
  Q 364.85 616.40 365.43 615.95
  L 418.09 575.09
  A 0.22 0.22 0.0 0 0 417.85 574.73
  L 358.50 605.74
  A 0.42 0.41 62.8 0 1 357.95 605.56
  L 347.62 585.79
  Q 347.37 585.31 347.86 585.06
  L 405.02 555.25
  Q 409.14 553.11 404.71 554.48
  L 343.71 573.46
  Q 342.63 573.80 342.29 572.71
  L 335.89 552.11
  Q 335.73 551.59 336.25 551.44
  L 397.47 532.44
  Q 402.44 530.90 397.27 531.54
  L 333.78 539.34
  A 0.67 0.66 -7.2 0 1 333.03 538.76
  L 330.43 517.40
  Q 330.30 516.34 331.35 516.21
  L 395.04 508.47
  Q 399.76 507.89 395.01 507.62
  L 330.52 503.94
  A 0.64 0.64 0.0 0 1 329.92 503.26
  L 331.21 481.27
  Q 331.24 480.75 331.76 480.78
  Q 364.90 482.55 397.99 484.64
  Q 398.24 484.66 398.36 484.55
  Q 398.47 484.45 398.46 484.30
  Q 398.46 484.13 398.30 484.09
  L 333.87 468.59
  A 0.88 0.88 0.0 0 1 333.23 467.53
  L 338.35 446.32
  A 0.56 0.56 0.0 0 1 339.02 445.91
  L 403.75 461.56
  A 0.24 0.24 0.0 0 0 403.90 461.10
  L 342.99 434.23
  A 0.59 0.59 0.0 0 1 342.69 433.45
  L 351.65 413.28
  A 0.60 0.60 0.0 0 1 352.44 412.97
  L 413.46 439.98
  A 0.23 0.22 -15.8 0 0 413.68 439.59
  L 358.56 402.28
  A 0.82 0.80 -56.0 0 1 358.35 401.15
  L 370.64 383.05
  A 0.55 0.55 0.0 0 1 371.41 382.90
  L 426.78 420.46
  A 0.11 0.07 29.1 0 0 426.93 420.45
  Q 426.98 420.32 427.02 420.20
  Q 427.03 420.15 426.94 420.06
  L 379.29 373.43
  A 0.66 0.66 0.0 0 1 379.28 372.50
  L 394.60 356.86
  A 0.71 0.71 0.0 0 1 395.61 356.84
  Q 419.06 379.75 442.62 402.88
  Q 442.82 403.07 443.00 403.00
  Q 443.32 402.89 443.12 402.61
  L 404.96 348.82
  A 0.69 0.68 -35.7 0 1 405.12 347.87
  L 423.10 335.13
  Q 423.52 334.83 423.83 335.25
  Q 443.25 362.50 462.43 389.84
  Q 462.55 390.01 462.68 390.02
  Q 462.82 390.04 462.91 389.91
  Q 462.97 389.82 462.92 389.72
  L 434.51 329.05
  A 0.54 0.52 -25.3 0 1 434.77 328.35
  L 454.78 319.01
  A 0.68 0.68 0.0 0 1 455.68 319.34
  L 483.99 380.20
  Q 484.05 380.32 484.18 380.28
  Q 484.31 380.23 484.44 380.19
  Q 484.45 380.18 484.41 380.03
  Q 475.78 347.61 467.27 315.17
  Q 467.09 314.48 467.78 314.30
  L 488.82 308.76
  A 0.79 0.78 75.4 0 1 489.77 309.32
  L 505.84 370.46
  Q 507.33 376.14 506.87 370.28
  L 501.89 307.23
  A 0.70 0.70 0.0 0 1 502.53 306.48
  L 524.33 304.71
  Q 525.00 304.65 525.06 305.33
  L 530.47 374.95
  A 0.16 0.15 -44.6 0 0 530.78 374.95
  L 538.09 305.83
  Q 538.20 304.85 539.18 304.96
  L 560.81 307.26
  A 0.50 0.50 0.0 0 1 561.25 307.81
  L 554.47 371.74
  Q 553.93 376.77 555.35 371.91
  L 573.26 310.49
  Q 573.49 309.69 574.29 309.92
  L 595.28 316.05
  Q 595.85 316.22 595.68 316.78
  L 576.77 381.22
  Z
  M 439.53 480.33
  A 0.48 0.48 0.0 0 0 439.53 481.19
  L 529.33 528.14
  A 0.48 0.48 0.0 0 0 529.77 528.14
  L 599.31 491.78
  A 0.48 0.48 0.0 0 1 600.01 492.20
  L 599.99 561.35
  A 0.48 0.48 0.0 0 0 600.49 561.83
  L 604.29 561.71
  A 0.48 0.48 0.0 0 0 604.75 561.23
  L 604.75 489.21
  A 0.48 0.48 0.0 0 1 605.01 488.79
  L 619.56 481.19
  A 0.48 0.48 0.0 0 0 619.57 480.34
  L 529.77 433.39
  A 0.48 0.48 0.0 0 0 529.33 433.39
  L 439.53 480.33
  Z
  M 472.00 543.73
  A 0.31 0.31 0.0 0 0 472.17 544.01
  L 529.40 573.95
  A 0.31 0.31 0.0 0 0 529.68 573.95
  L 586.83 544.07
  A 0.31 0.31 0.0 0 0 587.00 543.79
  L 587.00 510.94
  A 0.31 0.31 0.0 0 0 586.55 510.67
  L 529.69 540.39
  A 0.31 0.31 0.0 0 1 529.41 540.39
  L 472.45 510.62
  A 0.31 0.31 0.0 0 0 472.00 510.89
  L 472.00 543.73
  Z"
/>
<rect fill="#000000" x="-39.50" y="-15.83" transform="translate(199.76,356.54) rotate(23.9)" width="79.00" height="31.66" rx="0.53"/>
<rect fill="#000000" x="-33.72" y="-15.83" transform="translate(857.86,367.84) rotate(-22.4)" width="67.44" height="31.66" rx="0.58"/>
<path fill="#000000" d="
  M 0.00 390.68
  Q 0.00 390.32 0.00 389.96
  L 7.21 360.52
  A 0.63 0.63 0.0 0 1 7.96 360.06
  L 220.20 411.48
  Q 221.04 411.68 220.84 412.52
  L 213.75 441.76
  Q 213.59 442.44 212.91 442.27
  L 0.00 390.68
  Z"
/>
<path fill="#000000" d="
  M 1135.33 467.89
  C 1086.07 456.50 1084.49 384.45 1132.61 369.92
  C 1168.06 359.21 1203.25 382.86 1201.26 421.32
  C 1199.44 456.59 1168.11 475.48 1135.33 467.89
  Z
  M 1123.05 406.01
  C 1118.51 421.39 1121.94 444.17 1140.43 449.08
  C 1149.06 451.37 1158.78 450.52 1166.14 445.44
  C 1180.58 435.47 1180.51 408.43 1170.55 395.84
  Q 1162.03 385.06 1145.90 386.90
  Q 1128.08 388.93 1123.05 406.01
  Z"
/>
<path fill="#000000" d="
  M 1307.55 377.46
  C 1319.31 387.08 1320.75 406.24 1313.51 418.82
  C 1303.97 435.40 1282.90 435.71 1266.08 435.22
  A 0.59 0.58 1.0 0 0 1265.47 435.80
  L 1265.61 468.07
  A 0.43 0.43 0.0 0 1 1265.18 468.50
  L 1243.59 468.50
  Q 1242.43 468.50 1242.43 467.34
  L 1242.48 369.06
  Q 1242.48 368.52 1243.03 368.52
  Q 1259.51 368.47 1276.00 368.48
  C 1287.36 368.49 1298.48 370.04 1307.55 377.46
  Z
  M 1265.36 386.91
  L 1265.42 416.55
  A 0.99 0.99 0.0 0 0 1266.41 417.53
  L 1279.87 417.51
  A 14.69 14.16 -0.1 0 0 1294.53 403.32
  L 1294.53 400.02
  A 14.69 14.16 -0.1 0 0 1279.81 385.89
  L 1266.35 385.91
  A 0.99 0.99 0.0 0 0 1265.36 386.91
  Z"
/>
<path fill="#000000" d="
  M 1383.50 427.28
  L 1383.50 450.04
  A 0.48 0.48 0.0 0 0 1383.98 450.52
  L 1424.02 450.49
  A 0.48 0.48 0.0 0 1 1424.50 450.97
  L 1424.50 468.02
  A 0.48 0.48 0.0 0 1 1424.02 468.50
  L 1360.48 468.50
  A 0.48 0.48 0.0 0 1 1360.00 468.02
  L 1360.00 368.98
  A 0.48 0.48 0.0 0 1 1360.48 368.50
  L 1424.02 368.50
  A 0.48 0.48 0.0 0 1 1424.50 368.98
  L 1424.50 386.03
  A 0.48 0.48 0.0 0 1 1424.02 386.51
  L 1384.00 386.48
  A 0.48 0.48 0.0 0 0 1383.52 386.96
  L 1383.47 409.27
  A 0.48 0.48 0.0 0 0 1383.95 409.75
  L 1414.27 409.75
  A 0.48 0.48 0.0 0 1 1414.75 410.23
  L 1414.75 426.24
  A 0.48 0.48 0.0 0 1 1414.27 426.72
  L 1383.98 426.80
  A 0.48 0.48 0.0 0 0 1383.50 427.28
  Z"
/>
<path fill="#000000" d="
  M 1493.01 406.29
  C 1494.17 426.72 1493.51 447.52 1493.49 467.99
  A 0.51 0.50 -90.0 0 1 1492.99 468.50
  L 1473.75 468.50
  Q 1473.00 468.50 1473.00 467.75
  L 1473.00 369.01
  A 0.50 0.50 0.0 0 1 1473.50 368.51
  Q 1479.65 368.48 1486.02 368.51
  C 1490.35 368.54 1491.81 370.67 1494.67 374.28
  Q 1516.43 401.73 1539.62 431.12
  A 0.34 0.33 26.2 0 0 1540.22 430.92
  C 1540.23 428.74 1539.77 426.19 1539.77 424.29
  Q 1539.73 396.62 1539.76 369.01
  A 0.51 0.50 -90.0 0 1 1540.26 368.50
  L 1559.50 368.50
  Q 1560.25 368.50 1560.25 369.25
  L 1560.25 467.99
  A 0.50 0.50 0.0 0 1 1559.75 468.49
  C 1553.59 468.52 1544.27 470.22 1539.86 464.62
  Q 1516.81 435.30 1493.68 406.04
  A 0.38 0.37 24.5 0 0 1493.01 406.29
  Z"
/>
<rect fill="#000000" x="-49.39" y="-15.83" transform="translate(892.02,425.34) rotate(-12.1)" width="98.78" height="31.66" rx="0.42"/>
<rect fill="#000000" x="-79.85" y="-15.82" transform="translate(129.08,479.38) rotate(3.3)" width="159.70" height="31.64" rx="0.52"/>
<rect fill="#000000" x="-39.08" y="-15.82" transform="translate(889.73,491.63) rotate(-1.8)" width="78.16" height="31.64" rx="0.66"/>
<rect fill="#000000" x="-77.83" y="-15.82" transform="translate(133.33,551.01) rotate(-6.9)" width="155.66" height="31.64" rx="0.61"/>
<rect fill="#000000" x="-61.52" y="-15.83" transform="translate(908.15,559.43) rotate(8.5)" width="123.04" height="31.66" rx="0.61"/>
<path fill="#000000" d="
  M 1513.51 636.35
  C 1465.34 630.09 1460.36 557.85 1503.14 540.17
  C 1520.23 533.11 1541.78 535.21 1555.78 548.46
  Q 1556.20 548.86 1555.86 549.33
  L 1551.50 555.44
  A 2.87 2.87 0.0 0 1 1547.76 556.27
  C 1545.02 554.72 1542.21 552.39 1539.51 551.23
  C 1517.45 541.72 1493.47 552.43 1488.77 576.76
  C 1484.09 600.98 1495.48 624.92 1522.99 625.22
  Q 1536.82 625.36 1547.39 615.92
  C 1549.97 613.61 1553.78 618.81 1556.02 621.72
  Q 1556.32 622.10 1555.99 622.47
  C 1545.20 634.55 1529.14 638.38 1513.51 636.35
  Z"
/>
<path fill="#000000" d="
  M 1944.76 636.02
  C 1917.67 631.94 1903.83 608.59 1905.16 582.74
  C 1906.72 552.55 1930.07 533.64 1959.84 536.65
  C 2022.13 542.94 2014.28 646.48 1944.76 636.02
  Z
  M 1920.82 572.02
  C 1913.10 599.27 1926.61 629.24 1959.47 624.64
  C 1984.29 621.17 1991.38 596.54 1987.05 575.20
  C 1979.96 540.22 1930.47 537.98 1920.82 572.02
  Z"
/>
<path fill="#000000" d="
  M 1392.99 636.55
  C 1373.64 638.62 1356.09 629.37 1350.40 610.17
  Q 1348.86 604.98 1348.80 593.28
  Q 1348.67 565.65 1348.78 537.99
  Q 1348.78 537.50 1349.27 537.50
  L 1361.46 537.50
  Q 1361.98 537.50 1361.98 538.02
  Q 1362.04 567.79 1361.99 597.49
  C 1361.95 613.28 1372.01 625.35 1388.51 625.10
  C 1406.52 624.84 1413.49 610.98 1413.64 594.97
  Q 1413.89 566.69 1413.68 537.72
  A 0.23 0.23 0.0 0 1 1413.91 537.49
  L 1426.60 537.45
  A 0.40 0.39 -90.0 0 1 1426.99 537.85
  Q 1427.01 567.01 1427.01 596.25
  C 1427.02 617.72 1414.65 634.25 1392.99 636.55
  Z"
/>
<path fill="#000000" d="
  M 1660.01 608.75
  L 1617.70 608.75
  A 1.26 1.26 0.0 0 0 1616.52 609.56
  L 1607.52 632.80
  A 4.62 4.61 10.5 0 1 1603.21 635.75
  L 1593.49 635.75
  A 0.57 0.57 0.0 0 1 1592.96 634.97
  L 1631.76 537.97
  Q 1631.97 537.45 1632.53 537.45
  L 1645.03 537.52
  Q 1645.66 537.52 1645.89 538.11
  L 1684.68 635.08
  A 0.49 0.49 0.0 0 1 1684.23 635.75
  L 1674.21 635.75
  A 4.34 4.32 -10.6 0 1 1670.17 632.99
  L 1661.05 609.46
  A 1.12 1.12 0.0 0 0 1660.01 608.75
  Z
  M 1638.36 551.36
  Q 1636.50 558.35 1633.80 565.23
  Q 1627.26 581.88 1620.75 598.49
  A 0.56 0.56 0.0 0 0 1621.27 599.25
  L 1656.43 599.25
  A 0.43 0.43 0.0 0 0 1656.83 598.66
  L 1638.71 551.34
  A 0.19 0.18 -48.0 0 0 1638.36 551.36
  Z"
/>
<path fill="#000000" d="
  M 1762.57 549.32
  L 1762.58 635.18
  A 0.57 0.57 0.0 0 1 1762.01 635.75
  L 1749.82 635.75
  A 0.57 0.57 0.0 0 1 1749.25 635.18
  L 1749.25 549.28
  A 0.57 0.57 0.0 0 0 1748.68 548.71
  L 1717.82 548.77
  A 0.57 0.57 0.0 0 1 1717.25 548.20
  L 1717.25 538.06
  A 0.57 0.57 0.0 0 1 1717.82 537.49
  L 1793.74 537.50
  A 0.57 0.57 0.0 0 1 1794.31 538.07
  L 1794.22 548.18
  A 0.57 0.57 0.0 0 1 1793.65 548.75
  L 1763.14 548.75
  A 0.57 0.57 0.0 0 0 1762.57 549.32
  Z"
/>
<path fill="#000000" d="
  M 1842.79 537.44
  Q 1848.03 537.43 1853.59 537.54
  Q 1854.25 537.55 1854.25 538.21
  L 1854.25 635.00
  A 0.75 0.75 0.0 0 1 1853.50 635.75
  L 1841.47 635.75
  A 0.48 0.47 -0.0 0 1 1840.99 635.28
  L 1841.00 537.79
  A 0.51 0.50 72.4 0 1 1841.21 537.38
  Q 1841.56 537.14 1841.91 537.23
  Q 1842.75 537.44 1842.79 537.44
  Z"
/>
<path fill="#000000" d="
  M 2130.00 537.74
  L 2130.00 635.58
  C 2126.83 635.91 2121.01 636.67 2118.43 633.30
  Q 2090.31 596.67 2062.27 560.09
  A 0.16 0.16 0.0 0 0 2061.98 560.19
  L 2062.01 635.00
  Q 2062.01 635.75 2061.25 635.75
  L 2050.90 635.74
  A 0.65 0.65 0.0 0 1 2050.25 635.09
  L 2050.25 538.00
  A 0.50 0.50 0.0 0 1 2050.75 537.50
  L 2058.37 537.50
  A 3.63 3.63 0.0 0 1 2061.25 538.92
  L 2118.05 612.82
  Q 2118.31 613.15 2118.31 612.73
  L 2118.22 538.23
  Q 2118.22 537.59 2118.87 537.60
  L 2130.00 537.74
  Z"
/>
<path fill="#000000" d="
  M 1119.77 548.95
  L 1119.74 580.06
  A 0.70 0.70 0.0 0 0 1120.44 580.76
  L 1157.27 580.74
  A 0.70 0.70 0.0 0 1 1157.97 581.43
  L 1158.06 590.54
  A 0.70 0.70 0.0 0 1 1157.36 591.25
  L 1120.45 591.25
  A 0.70 0.70 0.0 0 0 1119.75 591.95
  L 1119.75 624.05
  A 0.70 0.70 0.0 0 0 1120.45 624.75
  L 1166.30 624.75
  A 0.70 0.70 0.0 0 1 1167.00 625.45
  L 1167.00 635.05
  A 0.70 0.70 0.0 0 1 1166.30 635.75
  L 1106.95 635.75
  A 0.70 0.70 0.0 0 1 1106.25 635.05
  L 1106.25 538.20
  A 0.70 0.70 0.0 0 1 1106.95 537.50
  L 1166.30 537.50
  A 0.70 0.70 0.0 0 1 1167.00 538.20
  L 1167.00 547.55
  A 0.70 0.70 0.0 0 1 1166.30 548.25
  L 1120.47 548.25
  A 0.70 0.70 0.0 0 0 1119.77 548.95
  Z"
/>
<path fill="#000000" d="
  M 1216.41 538.10
  A 0.83 0.83 0.0 0 1 1217.24 537.27
  L 1254.66 537.41
  A 47.01 47.01 0.0 0 1 1301.51 584.58
  L 1301.49 589.04
  A 47.01 47.01 0.0 0 1 1254.32 635.88
  L 1216.90 635.75
  A 0.83 0.83 0.0 0 1 1216.07 634.92
  L 1216.41 538.10
  Z
  M 1264.25 623.27
  C 1296.98 613.52 1295.75 555.75 1261.20 548.97
  C 1253.51 547.46 1240.17 548.16 1230.39 548.28
  Q 1229.74 548.29 1229.74 548.94
  L 1229.75 624.26
  Q 1229.75 624.81 1230.30 624.80
  C 1240.87 624.76 1254.87 626.06 1264.25 623.27
  Z"
/>
<rect fill="#000000" x="-18.15" y="-15.83" transform="translate(205.30,603.28) rotate(-17.3)" width="36.30" height="31.66" rx="0.57"/>
<rect fill="#000000" x="-20.55" y="-15.83" transform="translate(853.16,612.94) rotate(18.8)" width="41.10" height="31.66" rx="0.54"/>
<rect fill="#000000" x="-65.50" y="-15.84" transform="translate(186.44,681.44) rotate(-27.5)" width="131.00" height="31.68" rx="0.52"/>
<rect fill="#000000" x="-46.02" y="-15.84" transform="translate(850.56,681.32) rotate(29.0)" width="92.04" height="31.68" rx="0.58"/>
<rect fill="#000000" x="-70.62" y="-15.84" transform="translate(219.82,742.96) rotate(-37.8)" width="141.24" height="31.68" rx="0.75"/>
<rect fill="#000000" x="-50.91" y="-15.84" transform="translate(817.32,738.87) rotate(39.3)" width="101.82" height="31.68" rx="0.71"/>
<rect fill="#000000" x="-15.84" y="-68.83" transform="translate(268.86,793.07) rotate(41.9)" width="31.68" height="137.66" rx="0.52"/>
<rect fill="#000000" x="-15.85" y="-12.56" transform="translate(746.32,756.68) rotate(-44.0)" width="31.70" height="25.12" rx="0.73"/>
<rect fill="#000000" x="-15.85" y="-31.81" transform="translate(344.28,803.42) rotate(31.6)" width="31.70" height="63.62" rx="0.56"/>
<rect fill="#000000" x="-15.84" y="-113.18" transform="translate(747.75,878.51) rotate(-30.4)" width="31.68" height="226.36" rx="0.77"/>
<rect fill="#000000" x="-15.84" y="-61.86" transform="translate(390.01,859.66) rotate(21.3)" width="31.68" height="123.72" rx="0.67"/>
<rect fill="#000000" x="-15.83" y="-46.14" transform="translate(653.90,848.56) rotate(-19.8)" width="31.66" height="92.28" rx="0.56"/>
<rect fill="#000000" x="-15.83" y="-56.77" transform="translate(456.94,873.85) rotate(11.0)" width="31.66" height="113.54" rx="0.52"/>
<rect fill="#000000" x="-15.83" y="-76.34" transform="translate(595.17,894.99) rotate(-9.5)" width="31.66" height="152.68" rx="0.66"/>
<rect fill="#000000" x="-15.84" y="-39.52" transform="translate(524.57,863.60) rotate(0.8)" width="31.68" height="79.04" rx="0.65"/>
</svg>
